<?xml version="1.0" encoding="UTF-8" standalone="no"?>
<!DOCTYPE svg PUBLIC "-//W3C//DTD SVG 1.1//EN"
 "http://www.w3.org/Graphics/SVG/1.1/DTD/svg11.dtd">
<!-- Generated by graphviz version 2.47.0 (20210316.0004)
 -->
<!-- Title: dependencies Pages: 1 -->
<svg width="971pt" height="284pt"
 viewBox="0.00 0.00 971.00 284.00" xmlns="http://www.w3.org/2000/svg" xmlns:xlink="http://www.w3.org/1999/xlink">
<g id="graph0" class="graph" transform="scale(1 1) rotate(0) translate(4 280)">
<title>dependencies</title>
<polygon fill="white" stroke="transparent" points="-4,4 -4,-280 967,-280 967,4 -4,4"/>
<text text-anchor="start" x="460.51" y="-42.4" font-family="Times-12" font-weight="bold" font-size="14.00">Legend</text>
<polygon fill="#ffffb3" stroke="transparent" points="247.5,-10 247.5,-30 267.5,-30 267.5,-10 247.5,-10"/>
<text text-anchor="start" x="271.13" y="-15.4" font-family="Times-12" font-size="14.00"> &#160;Declarations</text>
<polygon fill="#8dd3c7" stroke="transparent" points="360.5,-10 360.5,-30 380.5,-30 380.5,-10 360.5,-10"/>
<text text-anchor="start" x="384.23" y="-15.4" font-family="Times-12" font-size="14.00"> &#160;Module</text>
<polygon fill="#80b1d3" stroke="transparent" points="446.5,-10 446.5,-30 466.5,-30 466.5,-10 446.5,-10"/>
<text text-anchor="start" x="470.28" y="-15.4" font-family="Times-12" font-size="14.00"> &#160;Bootstrap</text>
<polygon fill="#fdb462" stroke="transparent" points="543.5,-10 543.5,-30 563.5,-30 563.5,-10 543.5,-10"/>
<text text-anchor="start" x="567.17" y="-15.4" font-family="Times-12" font-size="14.00"> &#160;Providers</text>
<polygon fill="#fb8072" stroke="transparent" points="639.5,-10 639.5,-30 659.5,-30 659.5,-10 639.5,-10"/>
<text text-anchor="start" x="663.23" y="-15.4" font-family="Times-12" font-size="14.00"> &#160;Exports</text>
<g id="clust1" class="cluster">
<title>cluster_DashboardModule</title>
<polygon fill="none" stroke="black" stroke-dasharray="1,5" points="8,-70 8,-268 955,-268 955,-70 8,-70"/>
</g>
<g id="clust4" class="cluster">
<title>cluster_DashboardModule_imports</title>
<polygon fill="none" stroke="black" points="182,-78 182,-195 947,-195 947,-78 182,-78"/>
</g>
<g id="clust2" class="cluster">
<title>cluster_DashboardModule_declarations</title>
<polygon fill="none" stroke="black" points="16,-78 16,-130 174,-130 174,-78 16,-78"/>
</g>
<g id="clust5" class="cluster">
<title>cluster_DashboardModule_exports</title>
<polygon fill="none" stroke="black" points="409,-208 409,-260 571,-260 571,-208 409,-208"/>
</g>
<!-- DashboardComponent -->
<g id="node1" class="node">
<title>DashboardComponent</title>
<polygon fill="#ffffb3" stroke="black" points="165.97,-122 24.03,-122 24.03,-86 165.97,-86 165.97,-122"/>
<text text-anchor="middle" x="95" y="-99.8" font-family="Times,serif" font-size="14.00">DashboardComponent</text>
</g>
<!-- DashboardModule -->
<g id="node2" class="node">
<title>DashboardModule</title>
<polygon fill="#8dd3c7" stroke="black" points="550.19,-187 547.19,-191 526.19,-191 523.19,-187 429.81,-187 429.81,-151 550.19,-151 550.19,-187"/>
<text text-anchor="middle" x="490" y="-164.8" font-family="Times,serif" font-size="14.00">DashboardModule</text>
</g>
<!-- DashboardComponent&#45;&gt;DashboardModule -->
<g id="edge1" class="edge">
<title>DashboardComponent&#45;&gt;DashboardModule</title>
<path fill="none" stroke="black" d="M95,-122.29C95,-144.21 95,-178 95,-178 95,-178 419.58,-178 419.58,-178"/>
<polygon fill="black" stroke="black" points="419.58,-181.5 429.58,-178 419.58,-174.5 419.58,-181.5"/>
</g>
<!-- DashboardModule&#45;&gt;DashboardModule -->
<g id="edge5" class="edge">
<title>DashboardModule&#45;&gt;DashboardModule</title>
<path fill="none" stroke="black" d="M436.51,-150.76C436.51,-143.57 436.51,-137 436.51,-137 436.51,-137 422.75,-137 422.75,-137 422.75,-137 422.75,-202 422.75,-202 422.75,-202 469.97,-202 469.97,-202 469.97,-202 469.97,-197.04 469.97,-197.04"/>
<polygon fill="black" stroke="black" points="473.47,-197.04 469.97,-187.04 466.47,-197.04 473.47,-197.04"/>
</g>
<!-- DashboardComponent  -->
<g id="node9" class="node">
<title>DashboardComponent </title>
<polygon fill="#fb8072" stroke="black" points="562.97,-252 417.03,-252 417.03,-216 562.97,-216 562.97,-252"/>
<text text-anchor="middle" x="490" y="-229.8" font-family="Times,serif" font-size="14.00">DashboardComponent </text>
</g>
<!-- DashboardModule&#45;&gt;DashboardComponent  -->
<g id="edge9" class="edge">
<title>DashboardModule&#45;&gt;DashboardComponent </title>
<path fill="none" stroke="black" stroke-dasharray="5,2" d="M510.03,-187.11C510.03,-187.11 510.03,-205.99 510.03,-205.99"/>
<polygon fill="black" stroke="black" points="506.53,-205.99 510.03,-215.99 513.53,-205.99 506.53,-205.99"/>
</g>
<!-- AppHeaderModule -->
<g id="node3" class="node">
<title>AppHeaderModule</title>
<polygon fill="#8dd3c7" stroke="black" points="939.07,-122 936.07,-126 915.07,-126 912.07,-122 814.93,-122 814.93,-86 939.07,-86 939.07,-122"/>
<text text-anchor="middle" x="877" y="-99.8" font-family="Times,serif" font-size="14.00">AppHeaderModule</text>
</g>
<!-- AppHeaderModule&#45;&gt;DashboardModule -->
<g id="edge2" class="edge">
<title>AppHeaderModule&#45;&gt;DashboardModule</title>
<path fill="none" stroke="black" d="M877,-122.29C877,-144.21 877,-178 877,-178 877,-178 560.47,-178 560.47,-178"/>
<polygon fill="black" stroke="black" points="560.47,-174.5 550.47,-178 560.47,-181.5 560.47,-174.5"/>
</g>
<!-- CreateModule -->
<g id="node4" class="node">
<title>CreateModule</title>
<polygon fill="#8dd3c7" stroke="black" points="797.08,-122 794.08,-126 773.08,-126 770.08,-122 700.92,-122 700.92,-86 797.08,-86 797.08,-122"/>
<text text-anchor="middle" x="749" y="-99.8" font-family="Times,serif" font-size="14.00">CreateModule</text>
</g>
<!-- CreateModule&#45;&gt;DashboardModule -->
<g id="edge3" class="edge">
<title>CreateModule&#45;&gt;DashboardModule</title>
<path fill="none" stroke="black" d="M749,-122.11C749,-141.34 749,-169 749,-169 749,-169 560.4,-169 560.4,-169"/>
<polygon fill="black" stroke="black" points="560.4,-165.5 550.4,-169 560.4,-172.5 560.4,-165.5"/>
</g>
<!-- CreateTasksModule -->
<g id="node5" class="node">
<title>CreateTasksModule</title>
<polygon fill="#8dd3c7" stroke="black" points="683.24,-122 680.24,-126 659.24,-126 656.24,-122 554.76,-122 554.76,-86 683.24,-86 683.24,-122"/>
<text text-anchor="middle" x="619" y="-99.8" font-family="Times,serif" font-size="14.00">CreateTasksModule</text>
</g>
<!-- CreateTasksModule&#45;&gt;DashboardModule -->
<g id="edge4" class="edge">
<title>CreateTasksModule&#45;&gt;DashboardModule</title>
<path fill="none" stroke="black" d="M558.68,-122.03C558.68,-138.4 558.68,-160 558.68,-160 558.68,-160 557.84,-160 557.84,-160"/>
<polygon fill="black" stroke="black" points="560.26,-156.5 550.26,-160 560.26,-163.5 560.26,-156.5"/>
</g>
<!-- HomeModule -->
<g id="node6" class="node">
<title>HomeModule</title>
<polygon fill="#8dd3c7" stroke="black" points="536.76,-122 533.76,-126 512.76,-126 509.76,-122 443.24,-122 443.24,-86 536.76,-86 536.76,-122"/>
<text text-anchor="middle" x="490" y="-99.8" font-family="Times,serif" font-size="14.00">HomeModule</text>
</g>
<!-- HomeModule&#45;&gt;DashboardModule -->
<g id="edge6" class="edge">
<title>HomeModule&#45;&gt;DashboardModule</title>
<path fill="none" stroke="black" d="M490,-122.11C490,-122.11 490,-140.99 490,-140.99"/>
<polygon fill="black" stroke="black" points="486.5,-140.99 490,-150.99 493.5,-140.99 486.5,-140.99"/>
</g>
<!-- LoginModule -->
<g id="node7" class="node">
<title>LoginModule</title>
<polygon fill="#8dd3c7" stroke="black" points="425.49,-122 422.49,-126 401.49,-126 398.49,-122 332.51,-122 332.51,-86 425.49,-86 425.49,-122"/>
<text text-anchor="middle" x="379" y="-99.8" font-family="Times,serif" font-size="14.00">LoginModule</text>
</g>
<!-- LoginModule&#45;&gt;DashboardModule -->
<g id="edge7" class="edge">
<title>LoginModule&#45;&gt;DashboardModule</title>
<path fill="none" stroke="black" d="M420.01,-122.03C420.01,-138.4 420.01,-160 420.01,-160 420.01,-160 420.98,-160 420.98,-160"/>
<polygon fill="black" stroke="black" points="419.74,-163.5 429.74,-160 419.74,-156.5 419.74,-163.5"/>
</g>
<!-- TableTasksModule -->
<g id="node8" class="node">
<title>TableTasksModule</title>
<polygon fill="#8dd3c7" stroke="black" points="314.08,-122 311.08,-126 290.08,-126 287.08,-122 189.92,-122 189.92,-86 314.08,-86 314.08,-122"/>
<text text-anchor="middle" x="252" y="-99.8" font-family="Times,serif" font-size="14.00">TableTasksModule</text>
</g>
<!-- TableTasksModule&#45;&gt;DashboardModule -->
<g id="edge8" class="edge">
<title>TableTasksModule&#45;&gt;DashboardModule</title>
<path fill="none" stroke="black" d="M252,-122.11C252,-141.34 252,-169 252,-169 252,-169 419.63,-169 419.63,-169"/>
<polygon fill="black" stroke="black" points="419.63,-172.5 429.63,-169 419.63,-165.5 419.63,-172.5"/>
</g>
</g>
</svg>
