<?xml version="1.0" encoding="UTF-8" standalone="no"?>
<!DOCTYPE svg PUBLIC "-//W3C//DTD SVG 1.1//EN"
 "http://www.w3.org/Graphics/SVG/1.1/DTD/svg11.dtd">
<!-- Generated by graphviz version 2.47.0 (20210316.0004)
 -->
<!-- Title: dependencies Pages: 1 -->
<svg width="504pt" height="284pt"
 viewBox="0.00 0.00 504.00 284.00" xmlns="http://www.w3.org/2000/svg" xmlns:xlink="http://www.w3.org/1999/xlink">
<g id="graph0" class="graph" transform="scale(1 1) rotate(0) translate(4 280)">
<title>dependencies</title>
<polygon fill="white" stroke="transparent" points="-4,4 -4,-280 500,-280 500,4 -4,4"/>
<text text-anchor="start" x="227.01" y="-42.4" font-family="Times-12" font-weight="bold" font-size="14.00">Legend</text>
<polygon fill="#ffffb3" stroke="transparent" points="14,-10 14,-30 34,-30 34,-10 14,-10"/>
<text text-anchor="start" x="37.63" y="-15.4" font-family="Times-12" font-size="14.00"> &#160;Declarations</text>
<polygon fill="#8dd3c7" stroke="transparent" points="127,-10 127,-30 147,-30 147,-10 127,-10"/>
<text text-anchor="start" x="150.73" y="-15.4" font-family="Times-12" font-size="14.00"> &#160;Module</text>
<polygon fill="#80b1d3" stroke="transparent" points="213,-10 213,-30 233,-30 233,-10 213,-10"/>
<text text-anchor="start" x="236.78" y="-15.4" font-family="Times-12" font-size="14.00"> &#160;Bootstrap</text>
<polygon fill="#fdb462" stroke="transparent" points="310,-10 310,-30 330,-30 330,-10 310,-10"/>
<text text-anchor="start" x="333.67" y="-15.4" font-family="Times-12" font-size="14.00"> &#160;Providers</text>
<polygon fill="#fb8072" stroke="transparent" points="406,-10 406,-30 426,-30 426,-10 406,-10"/>
<text text-anchor="start" x="429.73" y="-15.4" font-family="Times-12" font-size="14.00"> &#160;Exports</text>
<g id="clust1" class="cluster">
<title>cluster_TableTasksModule</title>
<polygon fill="none" stroke="black" stroke-dasharray="1,5" points="97,-70 97,-268 399,-268 399,-70 97,-70"/>
</g>
<g id="clust5" class="cluster">
<title>cluster_TableTasksModule_exports</title>
<polygon fill="none" stroke="black" points="177,-208 177,-260 315,-260 315,-208 177,-208"/>
</g>
<g id="clust4" class="cluster">
<title>cluster_TableTasksModule_imports</title>
<polygon fill="none" stroke="black" points="247,-78 247,-130 391,-130 391,-78 247,-78"/>
</g>
<g id="clust2" class="cluster">
<title>cluster_TableTasksModule_declarations</title>
<polygon fill="none" stroke="black" points="105,-78 105,-130 239,-130 239,-78 105,-78"/>
</g>
<!-- CreateComponent -->
<g id="node1" class="node">
<title>CreateComponent</title>
<polygon fill="#ffffb3" stroke="black" points="230.86,-122 113.14,-122 113.14,-86 230.86,-86 230.86,-122"/>
<text text-anchor="middle" x="172" y="-99.8" font-family="Times,serif" font-size="14.00">CreateComponent</text>
</g>
<!-- TableTasksModule -->
<g id="node2" class="node">
<title>TableTasksModule</title>
<polygon fill="#8dd3c7" stroke="black" points="308.08,-187 305.08,-191 284.08,-191 281.08,-187 183.92,-187 183.92,-151 308.08,-151 308.08,-187"/>
<text text-anchor="middle" x="246" y="-164.8" font-family="Times,serif" font-size="14.00">TableTasksModule</text>
</g>
<!-- CreateComponent&#45;&gt;TableTasksModule -->
<g id="edge1" class="edge">
<title>CreateComponent&#45;&gt;TableTasksModule</title>
<path fill="none" stroke="black" d="M207.45,-122.11C207.45,-122.11 207.45,-140.99 207.45,-140.99"/>
<polygon fill="black" stroke="black" points="203.95,-140.99 207.45,-150.99 210.95,-140.99 203.95,-140.99"/>
</g>
<!-- CreateComponent  -->
<g id="node4" class="node">
<title>CreateComponent </title>
<polygon fill="#fb8072" stroke="black" points="306.86,-252 185.14,-252 185.14,-216 306.86,-216 306.86,-252"/>
<text text-anchor="middle" x="246" y="-229.8" font-family="Times,serif" font-size="14.00">CreateComponent </text>
</g>
<!-- TableTasksModule&#45;&gt;CreateComponent  -->
<g id="edge3" class="edge">
<title>TableTasksModule&#45;&gt;CreateComponent </title>
<path fill="none" stroke="black" stroke-dasharray="5,2" d="M246,-187.11C246,-187.11 246,-205.99 246,-205.99"/>
<polygon fill="black" stroke="black" points="242.5,-205.99 246,-215.99 249.5,-205.99 242.5,-205.99"/>
</g>
<!-- AppRoutingModule -->
<g id="node3" class="node">
<title>AppRoutingModule</title>
<polygon fill="#8dd3c7" stroke="black" points="383.27,-122 380.27,-126 359.27,-126 356.27,-122 254.73,-122 254.73,-86 383.27,-86 383.27,-122"/>
<text text-anchor="middle" x="319" y="-99.8" font-family="Times,serif" font-size="14.00">AppRoutingModule</text>
</g>
<!-- AppRoutingModule&#45;&gt;TableTasksModule -->
<g id="edge2" class="edge">
<title>AppRoutingModule&#45;&gt;TableTasksModule</title>
<path fill="none" stroke="black" d="M281.33,-122.11C281.33,-122.11 281.33,-140.99 281.33,-140.99"/>
<polygon fill="black" stroke="black" points="277.83,-140.99 281.33,-150.99 284.83,-140.99 277.83,-140.99"/>
</g>
</g>
</svg>
