<?xml version="1.0" encoding="UTF-8" standalone="no"?>
<!DOCTYPE svg PUBLIC "-//W3C//DTD SVG 1.1//EN"
 "http://www.w3.org/Graphics/SVG/1.1/DTD/svg11.dtd">
<!-- Generated by graphviz version 2.47.0 (20210316.0004)
 -->
<!-- Title: dependencies Pages: 1 -->
<svg width="1533pt" height="284pt"
 viewBox="0.00 0.00 1533.00 284.00" xmlns="http://www.w3.org/2000/svg" xmlns:xlink="http://www.w3.org/1999/xlink">
<g id="graph0" class="graph" transform="scale(1 1) rotate(0) translate(4 280)">
<title>dependencies</title>
<polygon fill="white" stroke="transparent" points="-4,4 -4,-280 1529,-280 1529,4 -4,4"/>
<text text-anchor="start" x="741.51" y="-42.4" font-family="Times-12" font-weight="bold" font-size="14.00">Legend</text>
<polygon fill="#ffffb3" stroke="transparent" points="528.5,-10 528.5,-30 548.5,-30 548.5,-10 528.5,-10"/>
<text text-anchor="start" x="552.13" y="-15.4" font-family="Times-12" font-size="14.00"> &#160;Declarations</text>
<polygon fill="#8dd3c7" stroke="transparent" points="641.5,-10 641.5,-30 661.5,-30 661.5,-10 641.5,-10"/>
<text text-anchor="start" x="665.23" y="-15.4" font-family="Times-12" font-size="14.00"> &#160;Module</text>
<polygon fill="#80b1d3" stroke="transparent" points="727.5,-10 727.5,-30 747.5,-30 747.5,-10 727.5,-10"/>
<text text-anchor="start" x="751.28" y="-15.4" font-family="Times-12" font-size="14.00"> &#160;Bootstrap</text>
<polygon fill="#fdb462" stroke="transparent" points="824.5,-10 824.5,-30 844.5,-30 844.5,-10 824.5,-10"/>
<text text-anchor="start" x="848.17" y="-15.4" font-family="Times-12" font-size="14.00"> &#160;Providers</text>
<polygon fill="#fb8072" stroke="transparent" points="920.5,-10 920.5,-30 940.5,-30 940.5,-10 920.5,-10"/>
<text text-anchor="start" x="944.23" y="-15.4" font-family="Times-12" font-size="14.00"> &#160;Exports</text>
<g id="clust1" class="cluster">
<title>cluster_AppModule</title>
<polygon fill="none" stroke="black" stroke-dasharray="1,5" points="8,-70 8,-268 1517,-268 1517,-70 8,-70"/>
</g>
<g id="clust7" class="cluster">
<title>cluster_AppModule_providers</title>
<polygon fill="none" stroke="black" points="1239,-78 1239,-130 1509,-130 1509,-78 1239,-78"/>
</g>
<g id="clust4" class="cluster">
<title>cluster_AppModule_imports</title>
<polygon fill="none" stroke="black" points="182,-78 182,-130 1231,-130 1231,-78 182,-78"/>
</g>
<g id="clust2" class="cluster">
<title>cluster_AppModule_declarations</title>
<polygon fill="none" stroke="black" points="16,-78 16,-130 174,-130 174,-78 16,-78"/>
</g>
<g id="clust6" class="cluster">
<title>cluster_AppModule_bootstrap</title>
<polygon fill="none" stroke="black" points="695,-208 695,-260 819,-260 819,-208 695,-208"/>
</g>
<!-- DashboardComponent -->
<g id="node1" class="node">
<title>DashboardComponent</title>
<polygon fill="#ffffb3" stroke="black" points="165.97,-122 24.03,-122 24.03,-86 165.97,-86 165.97,-122"/>
<text text-anchor="middle" x="95" y="-99.8" font-family="Times,serif" font-size="14.00">DashboardComponent</text>
</g>
<!-- AppModule -->
<g id="node2" class="node">
<title>AppModule</title>
<polygon fill="#8dd3c7" stroke="black" points="798.66,-187 795.66,-191 774.66,-191 771.66,-187 715.34,-187 715.34,-151 798.66,-151 798.66,-187"/>
<text text-anchor="middle" x="757" y="-164.8" font-family="Times,serif" font-size="14.00">AppModule</text>
</g>
<!-- DashboardComponent&#45;&gt;AppModule -->
<g id="edge1" class="edge">
<title>DashboardComponent&#45;&gt;AppModule</title>
<path fill="none" stroke="black" d="M95,-122.25C95,-145.02 95,-181 95,-181 95,-181 705.34,-181 705.34,-181"/>
<polygon fill="black" stroke="black" points="705.34,-184.5 715.34,-181 705.34,-177.5 705.34,-184.5"/>
</g>
<!-- AppComponent  -->
<g id="node11" class="node">
<title>AppComponent </title>
<polygon fill="#80b1d3" stroke="black" points="811.44,-252 702.56,-252 702.56,-216 811.44,-216 811.44,-252"/>
<text text-anchor="middle" x="757" y="-229.8" font-family="Times,serif" font-size="14.00">AppComponent </text>
</g>
<!-- AppModule&#45;&gt;AppComponent  -->
<g id="edge10" class="edge">
<title>AppModule&#45;&gt;AppComponent </title>
<path fill="none" stroke="black" stroke-dasharray="1,5" d="M757,-187.11C757,-187.11 757,-205.99 757,-205.99"/>
<polygon fill="black" stroke="black" points="753.5,-205.99 757,-215.99 760.5,-205.99 753.5,-205.99"/>
</g>
<!-- AppHeaderModule -->
<g id="node3" class="node">
<title>AppHeaderModule</title>
<polygon fill="#8dd3c7" stroke="black" points="1223.07,-122 1220.07,-126 1199.07,-126 1196.07,-122 1098.93,-122 1098.93,-86 1223.07,-86 1223.07,-122"/>
<text text-anchor="middle" x="1161" y="-99.8" font-family="Times,serif" font-size="14.00">AppHeaderModule</text>
</g>
<!-- AppHeaderModule&#45;&gt;AppModule -->
<g id="edge2" class="edge">
<title>AppHeaderModule&#45;&gt;AppModule</title>
<path fill="none" stroke="black" d="M1161,-122.11C1161,-141.34 1161,-169 1161,-169 1161,-169 808.71,-169 808.71,-169"/>
<polygon fill="black" stroke="black" points="808.71,-165.5 798.71,-169 808.71,-172.5 808.71,-165.5"/>
</g>
<!-- AppRoutingModule -->
<g id="node4" class="node">
<title>AppRoutingModule</title>
<polygon fill="#8dd3c7" stroke="black" points="1081.27,-122 1078.27,-126 1057.27,-126 1054.27,-122 952.73,-122 952.73,-86 1081.27,-86 1081.27,-122"/>
<text text-anchor="middle" x="1017" y="-99.8" font-family="Times,serif" font-size="14.00">AppRoutingModule</text>
</g>
<!-- AppRoutingModule&#45;&gt;AppModule -->
<g id="edge3" class="edge">
<title>AppRoutingModule&#45;&gt;AppModule</title>
<path fill="none" stroke="black" d="M1017,-122.02C1017,-139.37 1017,-163 1017,-163 1017,-163 808.77,-163 808.77,-163"/>
<polygon fill="black" stroke="black" points="808.77,-159.5 798.77,-163 808.77,-166.5 808.77,-159.5"/>
</g>
<!-- CreateModule -->
<g id="node5" class="node">
<title>CreateModule</title>
<polygon fill="#8dd3c7" stroke="black" points="935.08,-122 932.08,-126 911.08,-126 908.08,-122 838.92,-122 838.92,-86 935.08,-86 935.08,-122"/>
<text text-anchor="middle" x="887" y="-99.8" font-family="Times,serif" font-size="14.00">CreateModule</text>
</g>
<!-- CreateModule&#45;&gt;AppModule -->
<g id="edge4" class="edge">
<title>CreateModule&#45;&gt;AppModule</title>
<path fill="none" stroke="black" d="M887,-122.24C887,-137.57 887,-157 887,-157 887,-157 808.85,-157 808.85,-157"/>
<polygon fill="black" stroke="black" points="808.85,-153.5 798.85,-157 808.85,-160.5 808.85,-153.5"/>
</g>
<!-- CreateTasksModule -->
<g id="node6" class="node">
<title>CreateTasksModule</title>
<polygon fill="#8dd3c7" stroke="black" points="821.24,-122 818.24,-126 797.24,-126 794.24,-122 692.76,-122 692.76,-86 821.24,-86 821.24,-122"/>
<text text-anchor="middle" x="757" y="-99.8" font-family="Times,serif" font-size="14.00">CreateTasksModule</text>
</g>
<!-- CreateTasksModule&#45;&gt;AppModule -->
<g id="edge5" class="edge">
<title>CreateTasksModule&#45;&gt;AppModule</title>
<path fill="none" stroke="black" d="M757,-122.11C757,-122.11 757,-140.99 757,-140.99"/>
<polygon fill="black" stroke="black" points="753.5,-140.99 757,-150.99 760.5,-140.99 753.5,-140.99"/>
</g>
<!-- DashboardModule -->
<g id="node7" class="node">
<title>DashboardModule</title>
<polygon fill="#8dd3c7" stroke="black" points="675.19,-122 672.19,-126 651.19,-126 648.19,-122 554.81,-122 554.81,-86 675.19,-86 675.19,-122"/>
<text text-anchor="middle" x="615" y="-99.8" font-family="Times,serif" font-size="14.00">DashboardModule</text>
</g>
<!-- DashboardModule&#45;&gt;AppModule -->
<g id="edge6" class="edge">
<title>DashboardModule&#45;&gt;AppModule</title>
<path fill="none" stroke="black" d="M615,-122.24C615,-137.57 615,-157 615,-157 615,-157 705.16,-157 705.16,-157"/>
<polygon fill="black" stroke="black" points="705.16,-160.5 715.16,-157 705.16,-153.5 705.16,-160.5"/>
</g>
<!-- HomeModule -->
<g id="node8" class="node">
<title>HomeModule</title>
<polygon fill="#8dd3c7" stroke="black" points="536.76,-122 533.76,-126 512.76,-126 509.76,-122 443.24,-122 443.24,-86 536.76,-86 536.76,-122"/>
<text text-anchor="middle" x="490" y="-99.8" font-family="Times,serif" font-size="14.00">HomeModule</text>
</g>
<!-- HomeModule&#45;&gt;AppModule -->
<g id="edge7" class="edge">
<title>HomeModule&#45;&gt;AppModule</title>
<path fill="none" stroke="black" d="M490,-122.02C490,-139.37 490,-163 490,-163 490,-163 705.28,-163 705.28,-163"/>
<polygon fill="black" stroke="black" points="705.28,-166.5 715.28,-163 705.28,-159.5 705.28,-166.5"/>
</g>
<!-- LoginModule -->
<g id="node9" class="node">
<title>LoginModule</title>
<polygon fill="#8dd3c7" stroke="black" points="425.49,-122 422.49,-126 401.49,-126 398.49,-122 332.51,-122 332.51,-86 425.49,-86 425.49,-122"/>
<text text-anchor="middle" x="379" y="-99.8" font-family="Times,serif" font-size="14.00">LoginModule</text>
</g>
<!-- LoginModule&#45;&gt;AppModule -->
<g id="edge8" class="edge">
<title>LoginModule&#45;&gt;AppModule</title>
<path fill="none" stroke="black" d="M379,-122.11C379,-141.34 379,-169 379,-169 379,-169 705.1,-169 705.1,-169"/>
<polygon fill="black" stroke="black" points="705.1,-172.5 715.1,-169 705.1,-165.5 705.1,-172.5"/>
</g>
<!-- TableTasksModule -->
<g id="node10" class="node">
<title>TableTasksModule</title>
<polygon fill="#8dd3c7" stroke="black" points="314.08,-122 311.08,-126 290.08,-126 287.08,-122 189.92,-122 189.92,-86 314.08,-86 314.08,-122"/>
<text text-anchor="middle" x="252" y="-99.8" font-family="Times,serif" font-size="14.00">TableTasksModule</text>
</g>
<!-- TableTasksModule&#45;&gt;AppModule -->
<g id="edge9" class="edge">
<title>TableTasksModule&#45;&gt;AppModule</title>
<path fill="none" stroke="black" d="M252,-122.28C252,-143.32 252,-175 252,-175 252,-175 705.24,-175 705.24,-175"/>
<polygon fill="black" stroke="black" points="705.24,-178.5 715.24,-175 705.24,-171.5 705.24,-178.5"/>
</g>
<!-- AuthService -->
<g id="node12" class="node">
<title>AuthService</title>
<ellipse fill="#fdb462" stroke="black" cx="1442" cy="-104" rx="59.11" ry="18"/>
<text text-anchor="middle" x="1442" y="-99.8" font-family="Times,serif" font-size="14.00">AuthService</text>
</g>
<!-- AuthService&#45;&gt;AppModule -->
<g id="edge11" class="edge">
<title>AuthService&#45;&gt;AppModule</title>
<path fill="none" stroke="black" d="M1442,-122.25C1442,-145.02 1442,-181 1442,-181 1442,-181 808.82,-181 808.82,-181"/>
<polygon fill="black" stroke="black" points="808.82,-177.5 798.82,-181 808.82,-184.5 808.82,-177.5"/>
</g>
<!-- TaskService -->
<g id="node13" class="node">
<title>TaskService</title>
<ellipse fill="#fdb462" stroke="black" cx="1306" cy="-104" rx="58.53" ry="18"/>
<text text-anchor="middle" x="1306" y="-99.8" font-family="Times,serif" font-size="14.00">TaskService</text>
</g>
<!-- TaskService&#45;&gt;AppModule -->
<g id="edge12" class="edge">
<title>TaskService&#45;&gt;AppModule</title>
<path fill="none" stroke="black" d="M1306,-122.28C1306,-143.32 1306,-175 1306,-175 1306,-175 808.71,-175 808.71,-175"/>
<polygon fill="black" stroke="black" points="808.71,-171.5 798.71,-175 808.71,-178.5 808.71,-171.5"/>
</g>
</g>
</svg>
