<?xml version="1.0" encoding="UTF-8" standalone="no"?>
<!DOCTYPE svg PUBLIC "-//W3C//DTD SVG 1.1//EN"
 "http://www.w3.org/Graphics/SVG/1.1/DTD/svg11.dtd">
<!-- Generated by graphviz version 2.47.0 (20210316.0004)
 -->
<!-- Title: dependencies Pages: 1 -->
<svg width="1783pt" height="431pt"
 viewBox="0.00 0.00 1783.00 431.00" xmlns="http://www.w3.org/2000/svg" xmlns:xlink="http://www.w3.org/1999/xlink">
<g id="graph0" class="graph" transform="scale(1 1) rotate(0) translate(4 427)">
<title>dependencies</title>
<polygon fill="white" stroke="transparent" points="-4,4 -4,-427 1779,-427 1779,4 -4,4"/>
<text text-anchor="start" x="866.51" y="-42.4" font-family="Times-12" font-weight="bold" font-size="14.00">Legend</text>
<polygon fill="#ffffb3" stroke="transparent" points="653.5,-10 653.5,-30 673.5,-30 673.5,-10 653.5,-10"/>
<text text-anchor="start" x="677.13" y="-15.4" font-family="Times-12" font-size="14.00"> &#160;Declarations</text>
<polygon fill="#8dd3c7" stroke="transparent" points="766.5,-10 766.5,-30 786.5,-30 786.5,-10 766.5,-10"/>
<text text-anchor="start" x="790.23" y="-15.4" font-family="Times-12" font-size="14.00"> &#160;Module</text>
<polygon fill="#80b1d3" stroke="transparent" points="852.5,-10 852.5,-30 872.5,-30 872.5,-10 852.5,-10"/>
<text text-anchor="start" x="876.28" y="-15.4" font-family="Times-12" font-size="14.00"> &#160;Bootstrap</text>
<polygon fill="#fdb462" stroke="transparent" points="949.5,-10 949.5,-30 969.5,-30 969.5,-10 949.5,-10"/>
<text text-anchor="start" x="973.17" y="-15.4" font-family="Times-12" font-size="14.00"> &#160;Providers</text>
<polygon fill="#fb8072" stroke="transparent" points="1045.5,-10 1045.5,-30 1065.5,-30 1065.5,-10 1045.5,-10"/>
<text text-anchor="start" x="1069.23" y="-15.4" font-family="Times-12" font-size="14.00"> &#160;Exports</text>
<g id="clust1" class="cluster">
<title>cluster_AppHeaderModule</title>
<polygon fill="none" stroke="black" stroke-dasharray="1,5" points="140,-70 140,-271 294,-271 294,-70 140,-70"/>
</g>
<g id="clust2" class="cluster">
<title>cluster_AppHeaderModule_declarations</title>
<polygon fill="none" stroke="black" points="152,-78 152,-130 286,-130 286,-78 152,-78"/>
</g>
<g id="clust5" class="cluster">
<title>cluster_AppHeaderModule_exports</title>
<polygon fill="none" stroke="black" points="148,-211 148,-263 286,-263 286,-211 148,-211"/>
</g>
<g id="clust8" class="cluster">
<title>cluster_AppModule</title>
<polygon fill="none" stroke="black" stroke-dasharray="1,5" points="302,-70 302,-415 1399,-415 1399,-70 302,-70"/>
</g>
<g id="clust9" class="cluster">
<title>cluster_AppModule_declarations</title>
<polygon fill="none" stroke="black" points="1233,-143 1233,-195 1391,-195 1391,-143 1233,-143"/>
</g>
<g id="clust11" class="cluster">
<title>cluster_AppModule_imports</title>
<polygon fill="none" stroke="black" points="588,-78 588,-263 1211,-263 1211,-78 588,-78"/>
</g>
<g id="clust13" class="cluster">
<title>cluster_AppModule_bootstrap</title>
<polygon fill="none" stroke="black" points="781,-355 781,-407 905,-407 905,-355 781,-355"/>
</g>
<g id="clust14" class="cluster">
<title>cluster_AppModule_providers</title>
<polygon fill="none" stroke="black" points="310,-211 310,-263 580,-263 580,-211 310,-211"/>
</g>
<g id="clust28" class="cluster">
<title>cluster_CreateTasksModule</title>
<polygon fill="none" stroke="black" stroke-dasharray="1,5" points="1407,-203 1407,-271 1767,-271 1767,-203 1407,-203"/>
</g>
<g id="clust29" class="cluster">
<title>cluster_CreateTasksModule_declarations</title>
<polygon fill="none" stroke="black" points="1593,-211 1593,-263 1759,-263 1759,-211 1593,-211"/>
</g>
<g id="clust32" class="cluster">
<title>cluster_CreateTasksModule_exports</title>
<polygon fill="none" stroke="black" points="1415,-211 1415,-263 1585,-263 1585,-211 1415,-211"/>
</g>
<g id="clust35" class="cluster">
<title>cluster_DashboardModule</title>
<polygon fill="none" stroke="black" stroke-dasharray="1,5" points="1407,-279 1407,-347 1585,-347 1585,-279 1407,-279"/>
</g>
<g id="clust39" class="cluster">
<title>cluster_DashboardModule_exports</title>
<polygon fill="none" stroke="black" points="1415,-287 1415,-339 1577,-339 1577,-287 1415,-287"/>
</g>
<g id="clust56" class="cluster">
<title>cluster_PieChartModule</title>
<polygon fill="none" stroke="black" stroke-dasharray="1,5" points="8,-143 8,-195 132,-195 132,-143 8,-143"/>
</g>
<!-- CreateComponent -->
<g id="node1" class="node">
<title>CreateComponent</title>
<polygon fill="#ffffb3" stroke="black" points="277.86,-122 160.14,-122 160.14,-86 277.86,-86 277.86,-122"/>
<text text-anchor="middle" x="219" y="-99.8" font-family="Times,serif" font-size="14.00">CreateComponent</text>
</g>
<!-- AppHeaderModule -->
<g id="node2" class="node">
<title>AppHeaderModule</title>
<polygon fill="#8dd3c7" stroke="black" points="280.07,-187 277.07,-191 256.07,-191 253.07,-187 155.93,-187 155.93,-151 280.07,-151 280.07,-187"/>
<text text-anchor="middle" x="218" y="-164.8" font-family="Times,serif" font-size="14.00">AppHeaderModule</text>
</g>
<!-- CreateComponent&#45;&gt;AppHeaderModule -->
<g id="edge1" class="edge">
<title>CreateComponent&#45;&gt;AppHeaderModule</title>
<path fill="none" stroke="black" d="M219,-122.11C219,-122.11 219,-140.99 219,-140.99"/>
<polygon fill="black" stroke="black" points="215.5,-140.99 219,-150.99 222.5,-140.99 215.5,-140.99"/>
</g>
<!-- CreateModule -->
<g id="node7" class="node">
<title>CreateModule</title>
<polygon fill="#8dd3c7" stroke="black" points="915.08,-187 912.08,-191 891.08,-191 888.08,-187 818.92,-187 818.92,-151 915.08,-151 915.08,-187"/>
<text text-anchor="middle" x="867" y="-164.8" font-family="Times,serif" font-size="14.00">CreateModule</text>
</g>
<!-- CreateComponent&#45;&gt;CreateModule -->
<g id="edge15" class="edge">
<title>CreateComponent&#45;&gt;CreateModule</title>
<path fill="none" stroke="black" d="M277.94,-101C437.67,-101 867,-101 867,-101 867,-101 867,-140.78 867,-140.78"/>
<polygon fill="black" stroke="black" points="863.5,-140.78 867,-150.78 870.5,-140.78 863.5,-140.78"/>
</g>
<!-- HomeModule -->
<g id="node10" class="node">
<title>HomeModule</title>
<polygon fill="#8dd3c7" stroke="black" points="689.76,-187 686.76,-191 665.76,-191 662.76,-187 596.24,-187 596.24,-151 689.76,-151 689.76,-187"/>
<text text-anchor="middle" x="643" y="-164.8" font-family="Times,serif" font-size="14.00">HomeModule</text>
</g>
<!-- CreateComponent&#45;&gt;HomeModule -->
<g id="edge28" class="edge">
<title>CreateComponent&#45;&gt;HomeModule</title>
<path fill="none" stroke="black" d="M277.96,-115C394.46,-115 643,-115 643,-115 643,-115 643,-140.72 643,-140.72"/>
<polygon fill="black" stroke="black" points="639.5,-140.72 643,-150.72 646.5,-140.72 639.5,-140.72"/>
</g>
<!-- LoginModule -->
<g id="node11" class="node">
<title>LoginModule</title>
<polygon fill="#8dd3c7" stroke="black" points="800.49,-187 797.49,-191 776.49,-191 773.49,-187 707.51,-187 707.51,-151 800.49,-151 800.49,-187"/>
<text text-anchor="middle" x="754" y="-164.8" font-family="Times,serif" font-size="14.00">LoginModule</text>
</g>
<!-- CreateComponent&#45;&gt;LoginModule -->
<g id="edge30" class="edge">
<title>CreateComponent&#45;&gt;LoginModule</title>
<path fill="none" stroke="black" d="M278.04,-108C417.18,-108 754,-108 754,-108 754,-108 754,-140.7 754,-140.7"/>
<polygon fill="black" stroke="black" points="750.5,-140.7 754,-150.7 757.5,-140.7 750.5,-140.7"/>
</g>
<!-- TableTasksModule -->
<g id="node12" class="node">
<title>TableTasksModule</title>
<polygon fill="#8dd3c7" stroke="black" points="1057.08,-187 1054.08,-191 1033.08,-191 1030.08,-187 932.92,-187 932.92,-151 1057.08,-151 1057.08,-187"/>
<text text-anchor="middle" x="995" y="-164.8" font-family="Times,serif" font-size="14.00">TableTasksModule</text>
</g>
<!-- CreateComponent&#45;&gt;TableTasksModule -->
<g id="edge34" class="edge">
<title>CreateComponent&#45;&gt;TableTasksModule</title>
<path fill="none" stroke="black" d="M278.07,-94C454.88,-94 967.79,-94 967.79,-94 967.79,-94 967.79,-140.84 967.79,-140.84"/>
<polygon fill="black" stroke="black" points="964.29,-140.84 967.79,-150.84 971.29,-140.84 964.29,-140.84"/>
</g>
<!-- PieChartModule -->
<g id="node19" class="node">
<title>PieChartModule</title>
<polygon fill="#8dd3c7" stroke="black" points="124.04,-187 121.04,-191 100.04,-191 97.04,-187 15.96,-187 15.96,-151 124.04,-151 124.04,-187"/>
<text text-anchor="middle" x="70" y="-164.8" font-family="Times,serif" font-size="14.00">PieChartModule</text>
</g>
<!-- CreateComponent&#45;&gt;PieChartModule -->
<g id="edge32" class="edge">
<title>CreateComponent&#45;&gt;PieChartModule</title>
<path fill="none" stroke="black" d="M160.11,-104C118.46,-104 70,-104 70,-104 70,-104 70,-140.89 70,-140.89"/>
<polygon fill="black" stroke="black" points="66.5,-140.89 70,-150.89 73.5,-140.89 66.5,-140.89"/>
</g>
<!-- CreateComponent  -->
<g id="node3" class="node">
<title>CreateComponent </title>
<polygon fill="#fb8072" stroke="black" points="277.86,-255 156.14,-255 156.14,-219 277.86,-219 277.86,-255"/>
<text text-anchor="middle" x="217" y="-232.8" font-family="Times,serif" font-size="14.00">CreateComponent </text>
</g>
<!-- AppHeaderModule&#45;&gt;CreateComponent  -->
<g id="edge2" class="edge">
<title>AppHeaderModule&#45;&gt;CreateComponent </title>
<path fill="none" stroke="black" stroke-dasharray="5,2" d="M180.59,-187.22C180.59,-187.22 180.59,-208.73 180.59,-208.73"/>
<polygon fill="black" stroke="black" points="177.09,-208.73 180.59,-218.73 184.09,-208.73 177.09,-208.73"/>
</g>
<!-- AppModule -->
<g id="node5" class="node">
<title>AppModule</title>
<polygon fill="#8dd3c7" stroke="black" points="884.66,-331 881.66,-335 860.66,-335 857.66,-331 801.34,-331 801.34,-295 884.66,-295 884.66,-331"/>
<text text-anchor="middle" x="843" y="-308.8" font-family="Times,serif" font-size="14.00">AppModule</text>
</g>
<!-- AppHeaderModule&#45;&gt;AppModule -->
<g id="edge4" class="edge">
<title>AppHeaderModule&#45;&gt;AppModule</title>
<path fill="none" stroke="black" d="M280.25,-178C347.38,-178 444.73,-178 444.73,-178 444.73,-178 444.73,-317 444.73,-317 444.73,-317 791.13,-317 791.13,-317"/>
<polygon fill="black" stroke="black" points="791.13,-320.5 801.13,-317 791.13,-313.5 791.13,-320.5"/>
</g>
<!-- DashboardModule -->
<g id="node9" class="node">
<title>DashboardModule</title>
<polygon fill="#8dd3c7" stroke="black" points="1022.19,-255 1019.19,-259 998.19,-259 995.19,-255 901.81,-255 901.81,-219 1022.19,-219 1022.19,-255"/>
<text text-anchor="middle" x="962" y="-232.8" font-family="Times,serif" font-size="14.00">DashboardModule</text>
</g>
<!-- AppHeaderModule&#45;&gt;DashboardModule -->
<g id="edge20" class="edge">
<title>AppHeaderModule&#45;&gt;DashboardModule</title>
<path fill="none" stroke="black" d="M280.12,-160C384.6,-160 584.21,-160 584.21,-160 584.21,-160 584.21,-237 584.21,-237 584.21,-237 891.72,-237 891.72,-237"/>
<polygon fill="black" stroke="black" points="891.72,-240.5 901.72,-237 891.72,-233.5 891.72,-240.5"/>
</g>
<!-- DashboardComponent -->
<g id="node4" class="node">
<title>DashboardComponent</title>
<polygon fill="#ffffb3" stroke="black" points="1382.97,-187 1241.03,-187 1241.03,-151 1382.97,-151 1382.97,-187"/>
<text text-anchor="middle" x="1312" y="-164.8" font-family="Times,serif" font-size="14.00">DashboardComponent</text>
</g>
<!-- DashboardComponent&#45;&gt;AppModule -->
<g id="edge3" class="edge">
<title>DashboardComponent&#45;&gt;AppModule</title>
<path fill="none" stroke="black" d="M1335.66,-187.2C1335.66,-228.35 1335.66,-325 1335.66,-325 1335.66,-325 895,-325 895,-325"/>
<polygon fill="black" stroke="black" points="895,-321.5 885,-325 895,-328.5 895,-321.5"/>
</g>
<!-- DashboardComponent&#45;&gt;DashboardModule -->
<g id="edge19" class="edge">
<title>DashboardComponent&#45;&gt;DashboardModule</title>
<path fill="none" stroke="black" d="M1288.34,-187.25C1288.34,-210.02 1288.34,-246 1288.34,-246 1288.34,-246 1032.24,-246 1032.24,-246"/>
<polygon fill="black" stroke="black" points="1032.24,-242.5 1022.24,-246 1032.24,-249.5 1032.24,-242.5"/>
</g>
<!-- AppComponent  -->
<g id="node13" class="node">
<title>AppComponent </title>
<polygon fill="#80b1d3" stroke="black" points="897.44,-399 788.56,-399 788.56,-363 897.44,-363 897.44,-399"/>
<text text-anchor="middle" x="843" y="-376.8" font-family="Times,serif" font-size="14.00">AppComponent </text>
</g>
<!-- AppModule&#45;&gt;AppComponent  -->
<g id="edge12" class="edge">
<title>AppModule&#45;&gt;AppComponent </title>
<path fill="none" stroke="black" stroke-dasharray="1,5" d="M843,-331.22C843,-331.22 843,-352.73 843,-352.73"/>
<polygon fill="black" stroke="black" points="839.5,-352.73 843,-362.73 846.5,-352.73 839.5,-352.73"/>
</g>
<!-- AppRoutingModule -->
<g id="node6" class="node">
<title>AppRoutingModule</title>
<polygon fill="#8dd3c7" stroke="black" points="1131.27,-122 1128.27,-126 1107.27,-126 1104.27,-122 1002.73,-122 1002.73,-86 1131.27,-86 1131.27,-122"/>
<text text-anchor="middle" x="1067" y="-99.8" font-family="Times,serif" font-size="14.00">AppRoutingModule</text>
</g>
<!-- AppRoutingModule&#45;&gt;AppModule -->
<g id="edge5" class="edge">
<title>AppRoutingModule&#45;&gt;AppModule</title>
<path fill="none" stroke="black" d="M1065.84,-122.18C1065.84,-173.03 1065.84,-313 1065.84,-313 1065.84,-313 894.91,-313 894.91,-313"/>
<polygon fill="black" stroke="black" points="894.91,-309.5 884.91,-313 894.91,-316.5 894.91,-309.5"/>
</g>
<!-- AppRoutingModule&#45;&gt;TableTasksModule -->
<g id="edge35" class="edge">
<title>AppRoutingModule&#45;&gt;TableTasksModule</title>
<path fill="none" stroke="black" d="M1029.83,-122.11C1029.83,-122.11 1029.83,-140.99 1029.83,-140.99"/>
<polygon fill="black" stroke="black" points="1026.33,-140.99 1029.83,-150.99 1033.33,-140.99 1026.33,-140.99"/>
</g>
<!-- CreateModule&#45;&gt;CreateComponent  -->
<g id="edge16" class="edge">
<title>CreateModule&#45;&gt;CreateComponent </title>
<path fill="none" stroke="black" stroke-dasharray="5,2" d="M835.43,-187.2C835.43,-193.03 835.43,-198 835.43,-198 835.43,-198 229.14,-198 229.14,-198 229.14,-198 229.14,-208.87 229.14,-208.87"/>
<polygon fill="black" stroke="black" points="225.64,-208.87 229.14,-218.87 232.64,-208.87 225.64,-208.87"/>
</g>
<!-- CreateModule&#45;&gt;AppModule -->
<g id="edge6" class="edge">
<title>CreateModule&#45;&gt;AppModule</title>
<path fill="none" stroke="black" d="M851.89,-187.24C851.89,-187.24 851.89,-284.91 851.89,-284.91"/>
<polygon fill="black" stroke="black" points="848.39,-284.91 851.89,-294.91 855.39,-284.91 848.39,-284.91"/>
</g>
<!-- CreateModule&#45;&gt;DashboardModule -->
<g id="edge21" class="edge">
<title>CreateModule&#45;&gt;DashboardModule</title>
<path fill="none" stroke="black" d="M910.66,-187.22C910.66,-187.22 910.66,-208.73 910.66,-208.73"/>
<polygon fill="black" stroke="black" points="907.16,-208.73 910.66,-218.73 914.16,-208.73 907.16,-208.73"/>
</g>
<!-- CreateTasksModule -->
<g id="node8" class="node">
<title>CreateTasksModule</title>
<polygon fill="#8dd3c7" stroke="black" points="1203.24,-187 1200.24,-191 1179.24,-191 1176.24,-187 1074.76,-187 1074.76,-151 1203.24,-151 1203.24,-187"/>
<text text-anchor="middle" x="1139" y="-164.8" font-family="Times,serif" font-size="14.00">CreateTasksModule</text>
</g>
<!-- CreateTasksModule&#45;&gt;AppModule -->
<g id="edge7" class="edge">
<title>CreateTasksModule&#45;&gt;AppModule</title>
<path fill="none" stroke="black" d="M1151.87,-187.09C1151.87,-226.99 1151.87,-319 1151.87,-319 1151.87,-319 894.98,-319 894.98,-319"/>
<polygon fill="black" stroke="black" points="894.98,-315.5 884.98,-319 894.98,-322.5 894.98,-315.5"/>
</g>
<!-- CreateTasksModule&#45;&gt;DashboardModule -->
<g id="edge22" class="edge">
<title>CreateTasksModule&#45;&gt;DashboardModule</title>
<path fill="none" stroke="black" d="M1126.13,-187.22C1126.13,-207.37 1126.13,-237 1126.13,-237 1126.13,-237 1032.18,-237 1032.18,-237"/>
<polygon fill="black" stroke="black" points="1032.18,-233.5 1022.18,-237 1032.18,-240.5 1032.18,-233.5"/>
</g>
<!-- CreateTasksComponent  -->
<g id="node17" class="node">
<title>CreateTasksComponent </title>
<polygon fill="#fb8072" stroke="black" points="1577.02,-255 1422.98,-255 1422.98,-219 1577.02,-219 1577.02,-255"/>
<text text-anchor="middle" x="1500" y="-232.8" font-family="Times,serif" font-size="14.00">CreateTasksComponent </text>
</g>
<!-- CreateTasksModule&#45;&gt;CreateTasksComponent  -->
<g id="edge18" class="edge">
<title>CreateTasksModule&#45;&gt;CreateTasksComponent </title>
<path fill="none" stroke="black" stroke-dasharray="5,2" d="M1177.62,-187.02C1177.62,-204.37 1177.62,-228 1177.62,-228 1177.62,-228 1412.78,-228 1412.78,-228"/>
<polygon fill="black" stroke="black" points="1412.78,-231.5 1422.78,-228 1412.78,-224.5 1412.78,-231.5"/>
</g>
<!-- DashboardModule&#45;&gt;AppModule -->
<g id="edge8" class="edge">
<title>DashboardModule&#45;&gt;AppModule</title>
<path fill="none" stroke="black" d="M901.9,-249C883.67,-249 868.36,-249 868.36,-249 868.36,-249 868.36,-284.83 868.36,-284.83"/>
<polygon fill="black" stroke="black" points="864.86,-284.83 868.36,-294.83 871.86,-284.83 864.86,-284.83"/>
</g>
<!-- DashboardModule&#45;&gt;DashboardModule -->
<g id="edge23" class="edge">
<title>DashboardModule&#45;&gt;DashboardModule</title>
<path fill="none" stroke="black" d="M906.28,-218.88C906.28,-216.03 906.28,-214 906.28,-214 906.28,-214 891.15,-214 891.15,-214 891.15,-214 891.15,-275 891.15,-275 891.15,-275 982.03,-275 982.03,-275 982.03,-275 982.03,-265.11 982.03,-265.11"/>
<polygon fill="black" stroke="black" points="985.53,-265.11 982.03,-255.11 978.53,-265.11 985.53,-265.11"/>
</g>
<!-- DashboardComponent  -->
<g id="node18" class="node">
<title>DashboardComponent </title>
<polygon fill="#fb8072" stroke="black" points="1568.97,-331 1423.03,-331 1423.03,-295 1568.97,-295 1568.97,-331"/>
<text text-anchor="middle" x="1496" y="-308.8" font-family="Times,serif" font-size="14.00">DashboardComponent </text>
</g>
<!-- DashboardModule&#45;&gt;DashboardComponent  -->
<g id="edge27" class="edge">
<title>DashboardModule&#45;&gt;DashboardComponent </title>
<path fill="none" stroke="black" stroke-dasharray="5,2" d="M941.97,-255.17C941.97,-274.09 941.97,-301 941.97,-301 941.97,-301 1413,-301 1413,-301"/>
<polygon fill="black" stroke="black" points="1413,-304.5 1423,-301 1413,-297.5 1413,-304.5"/>
</g>
<!-- HomeModule&#45;&gt;CreateComponent  -->
<g id="edge29" class="edge">
<title>HomeModule&#45;&gt;CreateComponent </title>
<path fill="none" stroke="black" stroke-dasharray="5,2" d="M595.91,-169C501.73,-169 299.14,-169 299.14,-169 299.14,-169 299.14,-237 299.14,-237 299.14,-237 287.98,-237 287.98,-237"/>
<polygon fill="black" stroke="black" points="287.98,-233.5 277.98,-237 287.98,-240.5 287.98,-233.5"/>
</g>
<!-- HomeModule&#45;&gt;AppModule -->
<g id="edge9" class="edge">
<title>HomeModule&#45;&gt;AppModule</title>
<path fill="none" stroke="black" d="M627.37,-187.14C627.37,-225.23 627.37,-310 627.37,-310 627.37,-310 791.17,-310 791.17,-310"/>
<polygon fill="black" stroke="black" points="791.17,-313.5 801.17,-310 791.17,-306.5 791.17,-313.5"/>
</g>
<!-- HomeModule&#45;&gt;DashboardModule -->
<g id="edge24" class="edge">
<title>HomeModule&#45;&gt;DashboardModule</title>
<path fill="none" stroke="black" d="M658.63,-187.27C658.63,-205.56 658.63,-231 658.63,-231 658.63,-231 891.7,-231 891.7,-231"/>
<polygon fill="black" stroke="black" points="891.7,-234.5 901.7,-231 891.7,-227.5 891.7,-234.5"/>
</g>
<!-- LoginModule&#45;&gt;CreateComponent  -->
<g id="edge31" class="edge">
<title>LoginModule&#45;&gt;CreateComponent </title>
<path fill="none" stroke="black" stroke-dasharray="5,2" d="M748.02,-187.19C748.02,-190.54 748.02,-193 748.02,-193 748.02,-193 204.86,-193 204.86,-193 204.86,-193 204.86,-208.85 204.86,-208.85"/>
<polygon fill="black" stroke="black" points="201.36,-208.85 204.86,-218.85 208.36,-208.85 201.36,-208.85"/>
</g>
<!-- LoginModule&#45;&gt;AppModule -->
<g id="edge10" class="edge">
<title>LoginModule&#45;&gt;AppModule</title>
<path fill="none" stroke="black" d="M792.52,-187.07C792.52,-223.65 792.52,-303 792.52,-303 792.52,-303 793.4,-303 793.4,-303"/>
<polygon fill="black" stroke="black" points="791.31,-306.5 801.31,-303 791.31,-299.5 791.31,-306.5"/>
</g>
<!-- LoginModule&#45;&gt;DashboardModule -->
<g id="edge25" class="edge">
<title>LoginModule&#45;&gt;DashboardModule</title>
<path fill="none" stroke="black" d="M796.51,-187.03C796.51,-203.4 796.51,-225 796.51,-225 796.51,-225 891.79,-225 891.79,-225"/>
<polygon fill="black" stroke="black" points="891.79,-228.5 901.79,-225 891.79,-221.5 891.79,-228.5"/>
</g>
<!-- TableTasksModule&#45;&gt;CreateComponent  -->
<g id="edge36" class="edge">
<title>TableTasksModule&#45;&gt;CreateComponent </title>
<path fill="none" stroke="black" stroke-dasharray="5,2" d="M962.67,-187.19C962.67,-195.28 962.67,-203 962.67,-203 962.67,-203 253.41,-203 253.41,-203 253.41,-203 253.41,-208.81 253.41,-208.81"/>
<polygon fill="black" stroke="black" points="249.91,-208.81 253.41,-218.81 256.91,-208.81 249.91,-208.81"/>
</g>
<!-- TableTasksModule&#45;&gt;AppModule -->
<g id="edge11" class="edge">
<title>TableTasksModule&#45;&gt;AppModule</title>
<path fill="none" stroke="black" d="M1039.57,-187.04C1039.57,-224.45 1039.57,-307 1039.57,-307 1039.57,-307 894.69,-307 894.69,-307"/>
<polygon fill="black" stroke="black" points="894.69,-303.5 884.69,-307 894.69,-310.5 894.69,-303.5"/>
</g>
<!-- TableTasksModule&#45;&gt;DashboardModule -->
<g id="edge26" class="edge">
<title>TableTasksModule&#45;&gt;DashboardModule</title>
<path fill="none" stroke="black" d="M992.38,-187.22C992.38,-187.22 992.38,-208.73 992.38,-208.73"/>
<polygon fill="black" stroke="black" points="988.88,-208.73 992.38,-218.73 995.88,-208.73 988.88,-208.73"/>
</g>
<!-- AuthService -->
<g id="node14" class="node">
<title>AuthService</title>
<ellipse fill="#fdb462" stroke="black" cx="513" cy="-237" rx="59.11" ry="18"/>
<text text-anchor="middle" x="513" y="-232.8" font-family="Times,serif" font-size="14.00">AuthService</text>
</g>
<!-- AuthService&#45;&gt;AppModule -->
<g id="edge13" class="edge">
<title>AuthService&#45;&gt;AppModule</title>
<path fill="none" stroke="black" d="M569.22,-243C655.35,-243 810.07,-243 810.07,-243 810.07,-243 810.07,-284.97 810.07,-284.97"/>
<polygon fill="black" stroke="black" points="806.57,-284.97 810.07,-294.97 813.57,-284.97 806.57,-284.97"/>
</g>
<!-- TaskService -->
<g id="node15" class="node">
<title>TaskService</title>
<ellipse fill="#fdb462" stroke="black" cx="377" cy="-237" rx="58.53" ry="18"/>
<text text-anchor="middle" x="377" y="-232.8" font-family="Times,serif" font-size="14.00">TaskService</text>
</g>
<!-- TaskService&#45;&gt;AppModule -->
<g id="edge14" class="edge">
<title>TaskService&#45;&gt;AppModule</title>
<path fill="none" stroke="black" d="M377,-255.03C377,-280.51 377,-324 377,-324 377,-324 791.24,-324 791.24,-324"/>
<polygon fill="black" stroke="black" points="791.24,-327.5 801.24,-324 791.24,-320.5 791.24,-327.5"/>
</g>
<!-- CreateTasksComponent -->
<g id="node16" class="node">
<title>CreateTasksComponent</title>
<polygon fill="#ffffb3" stroke="black" points="1751.02,-255 1600.98,-255 1600.98,-219 1751.02,-219 1751.02,-255"/>
<text text-anchor="middle" x="1676" y="-232.8" font-family="Times,serif" font-size="14.00">CreateTasksComponent</text>
</g>
<!-- CreateTasksComponent&#45;&gt;CreateTasksModule -->
<g id="edge17" class="edge">
<title>CreateTasksComponent&#45;&gt;CreateTasksModule</title>
<path fill="none" stroke="black" d="M1676,-218.79C1676,-213.45 1676,-209 1676,-209 1676,-209 1100.38,-209 1100.38,-209 1100.38,-209 1100.38,-197.13 1100.38,-197.13"/>
<polygon fill="black" stroke="black" points="1103.88,-197.13 1100.38,-187.13 1096.88,-197.13 1103.88,-197.13"/>
</g>
<!-- PieChartModule&#45;&gt;CreateComponent  -->
<g id="edge33" class="edge">
<title>PieChartModule&#45;&gt;CreateComponent </title>
<path fill="none" stroke="black" stroke-dasharray="5,2" d="M70,-187.22C70,-207.37 70,-237 70,-237 70,-237 145.94,-237 145.94,-237"/>
<polygon fill="black" stroke="black" points="145.94,-240.5 155.94,-237 145.94,-233.5 145.94,-240.5"/>
</g>
</g>
</svg>
